<svg width="20" height="20" fill="none" xmlns="http://www.w3.org/2000/svg"><path d="M10.501 12.08V5.276H9.044v6.804L6.529 9.895l-.951 1.092 4.194 3.66 4.195-3.66-.95-1.092L10.5 12.08zM9.772.443a9.374 9.374 0 00-3.696.746 9.405 9.405 0 00-3.022 2.035 9.4 9.4 0 00-2.035 3.02 9.426 9.426 0 00-.747 3.704 9.428 9.428 0 002.782 6.706 9.528 9.528 0 003.022 2.043 9.374 9.374 0 003.696.746 9.374 9.374 0 003.697-.746 9.528 9.528 0 003.022-2.043 9.428 9.428 0 002.782-6.706c0-1.291-.25-2.526-.747-3.704a9.401 9.401 0 00-2.035-3.02 9.405 9.405 0 00-3.022-2.035A9.374 9.374 0 009.772.443zm7.883 7.88a8.268 8.268 0 010 3.241 7.89 7.89 0 01-.47 1.502 8.013 8.013 0 01-1.725 2.567 8.311 8.311 0 01-1.2.977c-.426.29-.883.536-1.368.737a7.68 7.68 0 01-1.493.47 7.856 7.856 0 01-1.627.17 7.856 7.856 0 01-1.626-.17 7.895 7.895 0 01-1.502-.47 8.022 8.022 0 01-2.56-1.714 7.984 7.984 0 01-.986-1.2 8.488 8.488 0 01-.746-1.367 8.3 8.3 0 01-.462-1.502 8.265 8.265 0 010-3.242 8.02 8.02 0 01.462-1.5c.207-.486.456-.942.746-1.369.29-.432.62-.832.987-1.199a8.225 8.225 0 011.19-.986 8.02 8.02 0 012.871-1.2A7.855 7.855 0 019.772 1.9c.551 0 1.094.056 1.627.169.515.1 1.013.255 1.493.462a7.6 7.6 0 011.368.737 7.988 7.988 0 012.187 2.185c.29.427.536.883.737 1.368.207.48.364.98.471 1.501z" fill="#EB5757"/></svg>