<svg width="51" height="51" viewBox="0 0 51 51" fill="none" xmlns="http://www.w3.org/2000/svg">
<path d="M31.875 17.5312V13.5469C31.875 12.4902 31.4552 11.4767 30.708 10.7295C29.9608 9.98228 28.9473 9.5625 27.8906 9.5625H8.76562C7.7089 9.5625 6.69546 9.98228 5.94825 10.7295C5.20103 11.4767 4.78125 12.4902 4.78125 13.5469V37.4531C4.78125 38.5098 5.20103 39.5233 5.94825 40.2705C6.69546 41.0177 7.7089 41.4375 8.76562 41.4375H27.8906C28.9473 41.4375 29.9608 41.0177 30.708 40.2705C31.4552 39.5233 31.875 38.5098 31.875 37.4531V33.4688" stroke="#E0E0E0" stroke-width="3.1875" stroke-linecap="round" stroke-linejoin="round"/>
<path d="M38.25 17.5312L46.2188 25.5L38.25 33.4688" stroke="#E0E0E0" stroke-width="3.1875" stroke-linecap="round" stroke-linejoin="round"/>
<path d="M19.0254 25.5H46.2188" stroke="#E0E0E0" stroke-width="3.1875" stroke-linecap="round" stroke-linejoin="round"/>
</svg>
