<svg width="31" height="31" fill="none" xmlns="http://www.w3.org/2000/svg"><path d="M30.885 15.133c-.244-.355-6.11-8.675-15.385-8.675C7.542 6.458.45 14.73.152 15.083a.648.648 0 000 .835c.298.352 7.39 8.624 15.348 8.624 7.958 0 15.05-8.272 15.348-8.625a.646.646 0 00.037-.784zM15.5 23.25c-6.38 0-12.445-6.083-13.986-7.75C3.052 13.833 9.11 7.75 15.5 7.75c7.465 0 12.733 6.075 14.02 7.716-1.486 1.613-7.586 7.784-14.02 7.784z" fill="#FB0808"/><path d="M15.5 10.334a5.172 5.172 0 00-5.167 5.166 5.172 5.172 0 005.167 5.167 5.172 5.172 0 005.167-5.167 5.172 5.172 0 00-5.167-5.166zm0 9.041a3.88 3.88 0 01-3.875-3.875 3.88 3.88 0 013.875-3.875 3.88 3.88 0 013.875 3.875 3.88 3.88 0 01-3.875 3.875z" fill="#FB0808"/></svg>