<svg width="133" height="32" fill="none" xmlns="http://www.w3.org/2000/svg"><path opacity=".7" d="M64.843 9.472L60.055 23H58.06l-3.401-9.728L51.22 23h-1.995L44.456 9.472h2.489l3.382 10.089 3.515-10.089h1.748l3.439 10.165 3.458-10.165h2.356zm9.416 8.854h-6.612c.05 1.026.304 1.786.76 2.28.469.481 1.159.722 2.07.722 1.052 0 2.028-.342 2.927-1.026l.684 1.634c-.456.367-1.02.665-1.691.893a6.443 6.443 0 01-2.014.323c-1.57 0-2.806-.443-3.705-1.33-.9-.887-1.35-2.103-1.35-3.648 0-.975.197-1.843.59-2.603a4.285 4.285 0 011.653-1.767c.71-.43 1.514-.646 2.413-.646 1.317 0 2.356.43 3.116 1.292.773.849 1.159 2.02 1.159 3.515v.361zm-4.218-3.458c-.633 0-1.153.19-1.558.57-.393.367-.646.906-.76 1.615h4.465c-.076-.722-.298-1.267-.665-1.634-.355-.367-.849-.551-1.482-.551zm12.101-1.71c.836 0 1.57.209 2.204.627.646.405 1.147.982 1.501 1.729.355.747.532 1.615.532 2.603 0 .988-.184 1.868-.55 2.641-.355.76-.856 1.349-1.502 1.767-.633.418-1.361.627-2.185.627-.71 0-1.343-.152-1.9-.456a2.992 2.992 0 01-1.235-1.273V23H76.67V9.016h2.356v5.833c.291-.532.71-.944 1.254-1.235.545-.304 1.165-.456 1.862-.456zm-.627 8.132c.785 0 1.394-.279 1.824-.836.43-.557.646-1.336.646-2.337 0-.988-.215-1.748-.646-2.28-.43-.545-1.045-.817-1.843-.817s-1.412.272-1.843.817c-.43.545-.646 1.317-.646 2.318 0 1.013.215 1.792.646 2.337.43.532 1.051.798 1.862.798zm10.681-9.804h-4.408V9.472h11.305v2.014h-4.427V23h-2.47V11.486zm8.82 1.919h2.356V23h-2.356v-9.595zm2.489-4.351v2.337h-2.641V9.054h2.641zm14.189 4.104c1.089 0 1.9.33 2.432.988.532.646.798 1.634.798 2.964V23h-2.375v-5.814c0-.76-.127-1.305-.38-1.634-.241-.342-.646-.513-1.216-.513-.659 0-1.178.234-1.558.703-.367.456-.551 1.09-.551 1.9V23h-2.375v-5.814c0-.747-.133-1.292-.399-1.634-.253-.342-.659-.513-1.216-.513-.659 0-1.178.234-1.558.703-.38.456-.57 1.09-.57 1.9V23h-2.356v-6.878c0-1.013-.051-1.919-.152-2.717h2.223l.171 1.52a3.012 3.012 0 011.197-1.311c.532-.304 1.14-.456 1.824-.456 1.469 0 2.426.608 2.869 1.824a3.269 3.269 0 011.292-1.33 3.729 3.729 0 011.9-.494zm14.563 5.168h-6.612c.051 1.026.304 1.786.76 2.28.469.481 1.159.722 2.071.722 1.051 0 2.027-.342 2.926-1.026l.684 1.634c-.456.367-1.02.665-1.691.893a6.445 6.445 0 01-2.014.323c-1.571 0-2.806-.443-3.705-1.33s-1.349-2.103-1.349-3.648c0-.975.196-1.843.589-2.603a4.289 4.289 0 011.653-1.767c.709-.43 1.514-.646 2.413-.646 1.317 0 2.356.43 3.116 1.292.773.849 1.159 2.02 1.159 3.515v.361zm-4.218-3.458c-.633 0-1.153.19-1.558.57-.393.367-.646.906-.76 1.615h4.465c-.076-.722-.298-1.267-.665-1.634-.355-.367-.849-.551-1.482-.551z" fill="#E8EBFF"/><path d="M16 30.982c8.267 0 14.968-6.709 14.968-14.984S24.267 1.015 16 1.015c-8.266 0-14.968 6.708-14.968 14.983S7.734 30.982 16 30.982z" fill="#4370FF"/><path d="M23.759 17.031h-8.792V6.581h2.065v8.384h6.727v2.066z" fill="#fff"/><path d="M17.032 0v2.074a13.93 13.93 0 019.354 4.611 13.959 13.959 0 01-.716 19.346 13.928 13.928 0 01-19.34 0 13.957 13.957 0 01-.716-19.346 13.93 13.93 0 019.354-4.61V0A15.994 15.994 0 004.152 5.22a16.026 16.026 0 00.718 22.27 15.991 15.991 0 0022.26 0 16.024 16.024 0 00.718-22.27A15.993 15.993 0 0017.032 0z" fill="#fff"/></svg>