<svg width="88" height="88" fill="none" xmlns="http://www.w3.org/2000/svg"><path d="M0 21.05C0 9.424 9.424 0 21.05 0h45.9C78.576 0 88 9.424 88 21.05v45.9C88 78.576 78.576 88 66.95 88h-45.9C9.424 88 0 78.576 0 66.95v-45.9z" fill="#2F80ED"/><path opacity=".2" d="M64.515 43.854l-8.902 30.113h-6.206l-5.692-20.745-5.65 20.745h-6.163L23 43.854h6.634l5.564 19.676 5.564-19.676h5.991l5.607 19.719 5.564-19.719h6.59z" fill="#fff"/><path d="M23.485 43.854l8.902-30.113h6.206l5.692 20.745 5.65-20.745h6.163L65 43.854h-6.634l-5.564-19.676-5.564 19.676h-5.991L35.64 24.135l-5.564 19.719h-6.59z" fill="#fff"/></svg>