<svg width="20" height="23" fill="none" xmlns="http://www.w3.org/2000/svg"><g clip-path="url(#clip0)"><path d="M11.555 1.12l3.918 3.918a.76.76 0 01.228.56.76.76 0 01-.228.56l-3.918 3.918c-.245.245-.534.3-.866.166-.327-.128-.487-.37-.481-.725V7.102c-1.662.065-3.08.683-4.251 1.855a6.169 6.169 0 00-1.382 2.09 6.382 6.382 0 00-.473 2.388c0 .805.158 1.6.473 2.388a6.169 6.169 0 001.382 2.09 6.17 6.17 0 002.09 1.382 6.381 6.381 0 002.388.473c.805 0 1.6-.158 2.388-.473a6.17 6.17 0 002.09-1.382 6.237 6.237 0 001.514-2.422 6.21 6.21 0 00.28-2.852c-.018-.099.014-.201.096-.306a.445.445 0 01.297-.14l2.405.009c.1-.006.187.026.263.096.076.07.12.157.131.262a9.287 9.287 0 01-.52 4.098 9.434 9.434 0 01-2.227 3.495c-.91.91-1.956 1.6-3.14 2.073a9.585 9.585 0 01-3.577.708 9.584 9.584 0 01-3.577-.708 9.245 9.245 0 01-3.14-2.073 9.244 9.244 0 01-2.073-3.14 9.584 9.584 0 01-.709-3.578c0-1.201.236-2.394.709-3.577a9.243 9.243 0 012.073-3.14A9.319 9.319 0 016.69 4.715a9.602 9.602 0 013.508-.77l.009-2.266c-.012-.35.151-.594.49-.734.326-.129.612-.07.857.175z" fill="#F2C94C"/></g><defs><clipPath id="clip0"><path fill="#fff" d="M0 0h20v23H0z"/></clipPath></defs></svg>